HIERARCHY
ROOT root
{
	OFFSET	0	13.1	24.9
	CHANNELS 6  Xposition Yposition Zposition Xrotation Yrotation Zrotation
	JOINT spine_1
	{
		OFFSET	0	9.99999	0
		CHANNELS 3  Xrotation Yrotation Zrotation
		JOINT spine_2
		{
			OFFSET	0	112	-10
			CHANNELS 3  Xrotation Yrotation Zrotation
			JOINT spine_3
			{
				OFFSET	0	206.5	19.3
				CHANNELS 3  Xrotation Yrotation Zrotation
				JOINT spine_4
				{
					OFFSET	0	110.4	14.6
					CHANNELS 3  Xrotation Yrotation Zrotation
					JOINT neck_1
					{
						OFFSET	0	71.8	-50.3
						CHANNELS 3  Xrotation Yrotation Zrotation
						JOINT neck_2
						{
							OFFSET	0	86.2	-25.8
							CHANNELS 3  Xrotation Yrotation Zrotation
							JOINT head_ee
							{
								OFFSET	0	179.8	-8.7
								CHANNELS 3  Xrotation Yrotation Zrotation
								End Site
								{
									OFFSET	1	0	0
								}
							}
						}
					}
					JOINT left_clavicle
					{
						OFFSET	-43.2	22.4	-70.8
						CHANNELS 3  Xrotation Yrotation Zrotation
						JOINT left_shoulder
						{
							OFFSET	-93.9	-5.79999	48.7
							CHANNELS 3  Xrotation Yrotation Zrotation
							JOINT left_elbow
							{
								OFFSET	-291.4	-30.8	15.2
								CHANNELS 3  Xrotation Yrotation Zrotation
								JOINT left_lowarm_twist
								{
									OFFSET	-110.7	-3.89999	13.6
									CHANNELS 3  Xrotation Yrotation Zrotation
									JOINT left_hand
									{
										OFFSET	-110.7	-3.89999	13.6
										CHANNELS 3  Xrotation Yrotation Zrotation
										JOINT left_ee
										{
											OFFSET	-80.8	-5.10001	12.1
											CHANNELS 3  Xrotation Yrotation Zrotation
											End Site
											{
												OFFSET	1	0	0
											}
										}
									}
								}
							}
						}
					}
					JOINT right_clavicle
					{
						OFFSET	43.2	22.4	-70.8
						CHANNELS 3  Xrotation Yrotation Zrotation
						JOINT right_shoulder
						{
							OFFSET	93.9	-5.79999	48.7
							CHANNELS 3  Xrotation Yrotation Zrotation
							JOINT right_elbow
							{
								OFFSET	291.4	-30.8	15.2
								CHANNELS 3  Xrotation Yrotation Zrotation
								JOINT right_lowarm_twist
								{
									OFFSET	110.7	-3.89999	13.6
									CHANNELS 3  Xrotation Yrotation Zrotation
									JOINT right_hand
									{
										OFFSET	110.7	-3.89999	13.6
										CHANNELS 3  Xrotation Yrotation Zrotation
										JOINT right_ee
										{
											OFFSET	80.8	-5.10001	12.1
											CHANNELS 3  Xrotation Yrotation Zrotation
											End Site
											{
												OFFSET	1	0	0
											}
										}
									}
								}
							}
						}
					}
				}
			}
		}
	}
	JOINT left_hip
	{
		OFFSET	-82.8	-127.5	0.300001
		CHANNELS 3  Xrotation Yrotation Zrotation
		JOINT left_knee
		{
			OFFSET	-28.2	-396.7	2.2
			CHANNELS 3  Xrotation Yrotation Zrotation
			JOINT left_ankle
			{
				OFFSET	-11.7	-411.3	35.4
				CHANNELS 3  Xrotation Yrotation Zrotation
				JOINT left_toes
				{
					OFFSET	0	-60	-88.6
					CHANNELS 3  Xrotation Yrotation Zrotation
					JOINT left_foot_ee
					{
						OFFSET	-22.5	-16.5	-42.2
						CHANNELS 3  Xrotation Yrotation Zrotation
						End Site
						{
							OFFSET	1	0	0
						}
					}
				}
			}
		}
	}
	JOINT right_hip
	{
		OFFSET	82.8	-127.5	0.300001
		CHANNELS 3  Xrotation Yrotation Zrotation
		JOINT right_knee
		{
			OFFSET	28.2	-396.7	2.2
			CHANNELS 3  Xrotation Yrotation Zrotation
			JOINT right_ankle
			{
				OFFSET	11.7	-411.3	35.4
				CHANNELS 3  Xrotation Yrotation Zrotation
				JOINT right_toes
				{
					OFFSET	0	-60	-88.6
					CHANNELS 3  Xrotation Yrotation Zrotation
					JOINT right_foot_ee
					{
						OFFSET	22.5	-16.5	-42.2
						CHANNELS 3  Xrotation Yrotation Zrotation
						End Site
						{
							OFFSET	1	0	0
						}
					}
				}
			}
		}
	}
}
MOTION
Frames: 6
Frame Time: 0.02
2843.36411347 712.548 -1656.90475137 4.78005929225 49.6485445833 -9.04458502303 -0.766982 0.561895 3.57331 -0.759941 0.333528 3.60177 -0.733748 -0.477284 3.58557 -0.751673 0.0945964 3.61593 -4.41355 20.5465 3.60175 -4.04391 35.1016 7.02437 -0.0 0.0 -0.0 0.213447 13.352 1.92548 -0.512957 -23.3352 50.1412 1.71039 -40.2704 0.627146 -32.1614 -2.15869 3.44277 -2.65453 15.5445 -10.0851 -0.0 0.0 -0.0 13.1764 24.3585 -26.2695 -15.6056 29.8762 -63.3348 0.196586 5.56223 -0.00954976 24.5865 -0.201717 3.11022 -0.12691 -12.8908 -4.50374 0.0 0.0 0.0 -9.08247 43.4058 7.36915 -1.77354 0.0689513 0.263432 27.0802 -20.5185 -4.00056 -37.0439 0.0 0.0 -0.0 0.0 -0.0 16.9782 21.0138 -0.268551 -58.2348 2.01242 -8.3281 6.16842 -25.487 0.930134 -12.9409 0.0 0.0 0.0 0.0 0.0 
2830.66587021 712.717 -1633.66381194 5.25889540155 52.0307808866 -9.10917134841 -0.580897 0.517951 3.22954 -0.575149 0.311509 3.25592 -0.553449 -0.411397 3.24482 -0.568124 0.105942 3.26905 -5.66876 20.4231 3.99149 -5.47198 34.9017 7.78503 -0.0 0.0 -0.0 0.100605 13.6007 1.76828 0.699748 -23.4404 49.1511 1.91235 -43.446 0.761966 -32.6368 -2.20427 3.48327 -2.77979 15.4948 -10.899 -0.0 0.0 -0.0 12.7328 24.1105 -25.2675 -16.8224 29.4463 -63.0347 0.161983 4.5878 -0.00648863 24.5661 -0.202106 3.10765 -0.228464 -13.6021 -4.15283 0.0 0.0 0.0 -10.9116 44.5471 8.27998 -2.45884 0.0934018 0.365762 28.3448 -20.3074 -4.14551 -36.114 0.0 0.0 -0.0 0.0 -0.0 17.1412 22.1144 0.00281148 -56.3962 1.82367 -8.11659 7.96157 -18.6596 1.15934 -12.2021 0.0 0.0 0.0 0.0 0.0 
2814.50524241 714.056 -1601.335852 5.73184907024 55.1597935969 -7.97950216041 -0.81339 0.338997 2.60587 -0.809629 0.17255 2.62215 -0.799007 -0.41886 2.59424 -0.808399 -0.00403848 2.62781 -3.61738 19.154 2.01241 -3.18949 33.5275 4.95039 -0.0 0.0 -0.0 1.00277 17.0417 3.55066 5.1818 -21.6956 49.2174 2.34448 -49.2631 1.07507 -30.5134 -2.00331 3.2995 -1.47232 16.695 -2.20919 -0.0 0.0 -0.0 12.9851 23.9073 -25.8723 -20.1443 23.3212 -59.147 0.188066 5.32259 -0.00874167 29.0503 -0.0947308 3.67025 -0.516816 -13.6148 -2.35099 0.0 0.0 0.0 -17.3694 54.8171 12.0801 3.48181 -0.158961 -0.510509 28.7251 -31.7063 -4.74986 -36.494 0.0 0.0 -0.0 0.0 -0.0 19.488 20.6096 -0.439065 -55.4806 1.73224 -8.00905 17.5248 -1.07726 2.43374 -5.76315 0.0 0.0 0.0 0.0 0.0 
2800.1372638 714.955 -1584.99676152 9.25436385405 56.9438570776 -10.8667346927 -0.972452 0.491466 2.63544 -0.968646 0.322831 2.66135 -0.950466 -0.288073 2.66533 -0.960354 0.136326 2.67738 -4.59379 18.6407 1.70268 -4.30032 33.0254 4.83833 -0.0 0.0 -0.0 0.975461 16.5359 3.46379 7.42051 -21.6216 47.9858 2.39766 -49.8971 1.11556 -30.5672 -2.00832 3.30425 -1.62046 17.4832 -2.74653 -0.0 0.0 -0.0 13.4153 26.1346 -26.6231 -23.6161 21.8651 -59.6192 0.186542 5.27969 -0.00860083 28.4853 -0.11068 3.59985 -0.312777 -12.7363 -3.26862 0.0 0.0 0.0 -23.2705 54.8163 13.5437 2.76102 -0.123506 -0.405616 30.3003 -31.9404 -4.96875 -34.5956 0.0 0.0 -0.0 0.0 -0.0 20.6818 11.0343 -1.46103 -44.5898 0.784283 -6.62852 17.0064 -1.01473 2.36746 -5.8326 0.0 0.0 0.0 0.0 0.0 
2783.04432418 718.666 -1566.40132782 9.490482973 58.7050323397 -10.8491899354 -0.785244 0.53418 2.78853 -0.780989 0.355728 2.81684 -0.760139 -0.281837 2.82519 -0.771238 0.167701 2.83425 -5.10867 18.0862 -0.108526 -4.86174 33.4375 3.05176 -0.0 0.0 -0.0 1.14247 14.9412 3.58929 10.9879 -18.6771 45.1233 2.89587 -55.1092 1.51124 -30.232 -1.9772 3.2746 -2.07865 17.4468 -5.5533 -0.0 0.0 -0.0 14.4305 25.7119 -29.0506 -27.9806 18.0682 -58.2596 0.264076 7.45303 -0.0171997 30.7477 -0.0426417 3.8808 -0.403811 -11.1532 -2.03577 0.0 0.0 0.0 -27.6158 56.2484 16.9708 4.41324 -0.206731 -0.645394 33.29 -32.3008 -5.36156 -35.0619 0.0 0.0 -0.0 0.0 -0.0 18.5315 8.13698 -4.50158 -26.2899 -0.168197 -3.99569 5.8695 4.34957 0.865964 -12.3675 0.0 0.0 0.0 0.0 0.0 
2783.62170193 718.666 -1564.21530717 9.57770676024 59.018782704 -10.9510956032 -0.785244 0.53418 2.78853 -0.780989 0.355728 2.81684 -0.760139 -0.281837 2.82519 -0.771238 0.167701 2.83425 -5.10867 18.0862 -0.108526 -4.86174 33.4375 3.05176 -0.0 0.0 -0.0 1.14247 14.9412 3.58929 10.9879 -18.6771 45.1233 2.89587 -55.1092 1.51124 -30.232 -1.9772 3.2746 -2.07865 17.4468 -5.5533 -0.0 0.0 -0.0 14.4305 25.7119 -29.0506 -27.9806 18.0682 -58.2596 0.264076 7.45303 -0.0171997 30.7477 -0.0426417 3.8808 -0.403811 -11.1532 -2.03577 0.0 0.0 0.0 -27.6158 56.2484 16.9708 4.41324 -0.206731 -0.645394 33.29 -32.3008 -5.36156 -35.0619 0.0 0.0 -0.0 0.0 -0.0 18.5315 8.13698 -4.50158 -26.2899 -0.168197 -3.99569 5.8695 4.34957 0.865964 -12.3675 0.0 0.0 0.0 0.0 0.0 
